# xmcd CD database file
#
# Track frame offsets:
#	182
#	10047
#	24090
#	44272
#	52732
#	66965
#	82560
#	93525
#	109822
#	122622
#	132812
#	148487
#	156235
#
# Disc length: 2363 seconds
#
# Revision: 2
# Processed by: cddbd v1.4PL0 Copyright (c) Steve Scherf et al.
# Submitted via: CdAid 2001.05.15.01
#
DISCID=9d09390d
DTITLE=Raul Seixas - Raul Seixas
DYEAR=1900
DGENRE=
TTITLE0=DDI
TTITLE1=Coisas do Coração
TTITLE2=Coração Noturno
TTITLE3=Não Fosse o Cabral
TTITLE4=Quero Mais
TTITLE5=Lua Cheia
TTITLE6=Carimbador Maluco
TTITLE7=Segredo Da Luz
TTITLE8=Aquela Coisa
TTITLE9=Eu Sou Eu Nicuri  é o Diabo
TTITLE10=Capim Guiné
TTITLE11=Babilina
TTITLE12=So Glad You're Mine
EXTD=
EXTT0=
EXTT1=
EXTT2=
EXTT3=
EXTT4=
EXTT5=
EXTT6=
EXTT7=
EXTT8=
EXTT9=
EXTT10=
EXTT11=
EXTT12=
PLAYORDER=
